<?xml version="1.0" standalone="no"?>
<!DOCTYPE svg PUBLIC "-//W3C//DTD SVG 20010904//EN"
 "http://www.w3.org/TR/2001/REC-SVG-20010904/DTD/svg10.dtd">
<svg version="1.0" xmlns="http://www.w3.org/2000/svg"
 width="828.000000pt" height="831.000000pt" viewBox="0 0 828.000000 831.000000"
 preserveAspectRatio="xMidYMid meet">

<g transform="translate(0.000000,831.000000) scale(0.100000,-0.100000)"
fill="#000000" stroke="none">
<path d="M3705 8265 c-142 -14 -165 -18 -360 -56 -60 -12 -119 -23 -130 -25
-11 -1 -20 -3 -20 -4 0 -1 -8 -3 -17 -5 -44 -8 -345 -99 -420 -127 -45 -17
-91 -31 -100 -31 -10 -1 -18 -5 -18 -9 0 -4 -5 -8 -11 -8 -19 0 -143 -52 -161
-67 -9 -8 -22 -12 -27 -8 -6 3 -11 1 -11 -4 0 -6 -5 -11 -12 -11 -19 0 -102
-43 -111 -57 -5 -7 -12 -11 -17 -8 -15 9 -121 -48 -115 -63 2 -7 1 -11 -4 -8
-11 7 -119 -42 -141 -64 -23 -23 -73 -50 -82 -44 -7 4 -8 3 -4 -4 4 -7 1 -12
-8 -12 -9 0 -16 -5 -16 -11 0 -5 -3 -8 -8 -5 -11 6 -117 -70 -115 -83 2 -5 -4
-8 -12 -5 -8 3 -25 -5 -39 -19 -14 -14 -27 -22 -30 -19 -3 3 -6 0 -6 -6 0 -7
-7 -12 -15 -12 -7 0 -18 -6 -22 -14 -4 -7 -26 -26 -48 -40 -54 -36 -232 -187
-309 -261 -34 -33 -74 -68 -89 -79 -14 -10 -25 -23 -24 -29 1 -6 -10 -17 -25
-24 -16 -8 -29 -18 -29 -24 -1 -5 -2 -13 -3 -18 0 -6 -8 -16 -16 -23 -12 -11
-13 -11 -5 2 6 9 2 7 -8 -5 -114 -127 -147 -165 -198 -232 -33 -43 -70 -90
-84 -106 -14 -15 -25 -30 -25 -33 0 -7 -59 -92 -84 -121 -22 -25 -43 -60 -52
-85 -3 -10 -10 -18 -15 -18 -5 0 -9 -7 -9 -15 0 -8 -4 -15 -9 -15 -5 0 -11 -8
-15 -17 -10 -31 -43 -83 -49 -77 -9 9 -19 -35 -11 -47 4 -8 3 -9 -4 -5 -7 4
-12 2 -12 -5 0 -7 -11 -27 -25 -45 -14 -18 -25 -37 -25 -42 0 -5 -6 -15 -14
-21 -8 -7 -18 -26 -21 -43 -4 -17 -23 -61 -42 -97 -19 -36 -44 -88 -55 -116
-11 -27 -26 -63 -33 -80 -13 -29 -44 -112 -84 -220 -55 -152 -135 -450 -155
-581 -4 -21 -13 -77 -21 -124 -35 -212 -48 -378 -48 -635 0 -425 29 -666 133
-1110 12 -49 26 -96 32 -102 6 -7 8 -13 5 -13 -4 0 65 -205 117 -350 46 -124
259 -549 320 -635 12 -16 30 -47 41 -67 11 -20 29 -48 40 -61 11 -13 25 -30
30 -39 72 -110 136 -189 147 -182 7 4 8 2 4 -5 -23 -36 471 -559 638 -676 16
-11 54 -40 85 -65 71 -57 189 -140 201 -140 4 0 10 -4 12 -8 3 -9 152 -107
208 -138 19 -10 38 -23 41 -27 4 -5 18 -10 32 -10 14 -1 25 -6 24 -10 -4 -16
418 -222 513 -252 14 -4 48 -18 77 -31 28 -13 56 -24 60 -24 5 0 63 -17 129
-39 220 -72 431 -118 689 -151 492 -64 1103 -31 1515 82 41 12 90 23 108 26
17 2 32 8 32 14 0 5 4 7 8 4 17 -10 377 117 550 195 120 54 327 162 425 223
60 36 110 66 112 66 7 0 97 63 119 82 11 10 23 18 27 18 3 0 22 13 42 28 34
27 35 30 19 48 -16 17 -16 17 6 -1 22 -18 23 -18 55 12 17 16 71 59 118 95 47
37 112 91 144 122 32 31 62 56 68 56 6 0 8 3 4 6 -3 3 21 28 54 56 33 27 57
53 53 59 -3 5 -2 8 3 7 5 -2 25 15 44 36 18 22 48 54 64 70 29 29 187 217 268
317 20 25 37 51 37 56 0 6 7 16 15 23 33 27 211 312 273 435 16 33 36 74 45
90 28 55 99 209 119 260 11 27 23 54 28 60 4 5 13 26 18 45 6 19 29 87 52 150
91 255 162 566 200 870 58 464 27 1021 -80 1450 -12 47 -28 112 -35 146 -8 34
-18 72 -23 85 -5 13 -18 51 -28 84 -10 33 -21 65 -25 70 -3 6 -12 28 -19 50
-7 22 -18 54 -25 70 -7 17 -21 53 -31 80 -31 91 -136 310 -202 423 -23 41 -42
78 -42 83 0 5 -3 9 -8 9 -4 0 -13 14 -21 31 -28 62 -139 234 -151 231 -6 -1
-9 2 -5 7 8 14 -58 101 -73 96 -7 -3 -11 -1 -7 4 7 12 -34 81 -48 81 -6 0 -8
3 -4 6 3 3 -6 17 -20 30 -14 13 -22 24 -18 24 5 0 0 9 -11 19 -10 10 -30 33
-43 50 -13 17 -27 28 -32 25 -5 -3 -6 3 -2 13 3 10 3 15 -2 11 -4 -4 -26 16
-48 45 -63 81 -337 348 -349 341 -6 -4 -8 -2 -5 3 4 6 -10 25 -31 43 -20 17
-66 57 -100 88 -35 32 -73 61 -85 67 -12 5 -37 25 -55 42 -18 18 -39 33 -46
33 -7 0 -21 9 -31 20 -10 12 -24 19 -31 16 -8 -3 -11 1 -7 10 3 7 0 14 -6 14
-5 0 -30 13 -53 29 -24 16 -47 27 -52 24 -5 -4 -7 -2 -4 3 3 5 -6 18 -20 28
-14 11 -22 14 -17 7 6 -10 3 -11 -14 -1 -12 6 -19 15 -16 19 4 8 -31 24 -47
22 -5 -1 -8 3 -8 9 0 10 -60 45 -72 42 -5 -1 -8 3 -8 9 0 5 -4 7 -10 4 -5 -3
-10 -1 -10 5 0 6 -4 9 -9 6 -5 -3 -12 1 -15 10 -5 13 -9 14 -21 4 -13 -11 -14
-10 -10 2 4 11 -3 19 -22 26 -15 6 -39 18 -53 26 -47 27 -108 55 -113 50 -2
-2 -10 2 -17 11 -7 8 -21 15 -31 15 -10 0 -34 9 -53 21 -20 12 -36 18 -36 14
0 -4 -16 3 -35 15 -19 12 -35 19 -35 15 0 -4 -15 3 -34 14 -18 12 -41 21 -50
21 -9 0 -28 7 -41 16 -13 9 -29 13 -35 9 -5 -3 -10 -2 -10 3 0 10 -100 43
-112 36 -4 -3 -8 0 -8 6 0 7 -7 9 -16 6 -8 -3 -12 -2 -9 4 3 6 -2 10 -12 11
-40 2 -80 11 -109 24 -17 8 -64 22 -104 30 -40 8 -77 18 -82 21 -5 3 -27 8
-49 10 -22 2 -66 11 -99 19 -32 8 -85 18 -117 20 -32 3 -96 13 -143 21 -121
22 -770 28 -965 9z m717 -651 c34 -3 92 -8 128 -10 36 -3 106 -12 155 -20 218
-36 198 -32 367 -75 20 -5 61 -17 90 -27 29 -11 80 -27 113 -37 99 -28 236
-82 385 -151 105 -49 117 -55 240 -126 145 -84 154 -90 183 -114 16 -13 39
-27 53 -30 13 -3 21 -10 18 -15 -3 -5 0 -9 7 -9 6 0 33 -18 59 -40 33 -28 50
-36 57 -29 8 8 11 7 10 -3 -2 -13 45 -59 148 -143 27 -22 62 -52 78 -68 15
-15 33 -24 40 -21 7 4 9 3 4 -1 -9 -11 33 -56 45 -49 5 3 7 2 6 -3 -5 -15 60
-86 71 -78 6 3 10 2 9 -3 -2 -5 35 -53 82 -107 47 -53 89 -104 94 -113 5 -10
16 -25 25 -34 9 -9 34 -42 56 -73 22 -31 54 -75 70 -98 41 -57 173 -284 220
-377 20 -41 44 -82 52 -91 7 -9 13 -20 12 -25 -2 -9 2 -21 36 -99 9 -22 36
-95 60 -162 23 -67 46 -119 50 -115 5 4 5 1 1 -5 -4 -7 6 -57 22 -110 63 -208
112 -461 132 -678 13 -141 13 -518 0 -643 -14 -137 -29 -250 -40 -302 -5 -25
-16 -83 -25 -130 -20 -104 -62 -266 -77 -300 -6 -14 -11 -29 -10 -33 2 -5 -4
-20 -12 -35 -8 -15 -20 -46 -27 -69 -7 -24 -16 -43 -21 -43 -5 0 -7 -4 -3 -9
3 -6 -3 -24 -14 -42 -11 -17 -17 -38 -14 -45 3 -8 -1 -14 -8 -14 -7 0 -10 -3
-6 -6 3 -3 -3 -20 -13 -36 -10 -17 -16 -36 -14 -42 2 -7 -5 -22 -16 -34 -11
-12 -18 -22 -14 -22 3 0 2 -6 -3 -12 -5 -7 -18 -35 -28 -63 -10 -27 -21 -52
-24 -55 -4 -3 -24 -40 -46 -82 -22 -43 -43 -78 -47 -78 -5 0 -8 -7 -8 -15 0
-9 -9 -28 -19 -43 -63 -90 -131 -204 -126 -212 3 -6 0 -8 -7 -5 -8 2 -35 -26
-66 -70 -30 -40 -70 -91 -89 -112 -19 -21 -47 -54 -61 -73 -37 -48 -302 -310
-314 -310 -5 0 -6 -5 -2 -12 4 -6 3 -8 -3 -5 -5 3 -28 -12 -51 -33 -23 -22
-46 -40 -51 -40 -5 0 -11 -3 -13 -7 -13 -31 -345 -251 -493 -328 -38 -20 -76
-42 -84 -48 -7 -6 -18 -12 -25 -13 -6 -1 -58 -24 -116 -51 -58 -28 -134 -60
-170 -73 -36 -12 -73 -27 -83 -32 -29 -15 -229 -75 -362 -110 -152 -39 -341
-68 -565 -89 -313 -28 -838 14 -1110 88 -30 9 -70 18 -88 20 -18 3 -35 9 -38
14 -3 5 -15 9 -27 9 -23 0 -239 70 -294 95 -17 8 -34 15 -38 15 -26 0 -448
206 -453 221 -2 5 -8 9 -14 9 -6 0 -39 18 -74 40 -35 22 -64 38 -64 35 0 -3
-8 2 -18 10 -26 21 -160 117 -196 140 -17 10 -36 24 -42 30 -6 5 -24 21 -40
35 -16 14 -58 50 -94 81 -36 31 -78 67 -94 80 -60 51 -209 209 -312 334 -59
72 -111 129 -116 128 -4 -2 -5 3 -2 10 2 7 -4 22 -13 32 -36 39 -223 346 -223
366 0 5 -4 9 -9 9 -5 0 -16 17 -24 38 -8 20 -34 78 -57 127 -80 171 -103 230
-160 403 -107 327 -149 588 -157 979 -6 285 1 415 38 658 27 180 44 260 99
447 16 56 27 105 24 109 -2 4 0 9 4 11 5 1 24 48 42 103 75 225 221 510 383
748 56 82 107 156 112 164 15 22 45 58 140 165 53 60 84 102 79 109 -4 7 -3 9
4 5 15 -9 86 60 76 75 -4 8 -3 9 4 5 7 -4 30 12 56 38 24 26 47 46 50 46 3 0
14 8 24 18 86 82 373 302 395 302 4 0 29 16 55 35 65 46 251 148 382 209 58
26 118 54 134 62 16 8 34 14 40 14 6 0 24 7 40 15 100 52 525 172 691 195 185
25 235 31 330 36 55 3 101 6 102 8 5 5 384 -3 445 -10z"/>
<path d="M3938 6495 c-3 -3 -38 -10 -79 -15 -242 -32 -461 -97 -659 -193 -52
-25 -165 -91 -171 -100 -3 -5 -10 -9 -15 -9 -21 -2 -169 -108 -240 -173 -18
-16 -52 -46 -75 -65 -60 -51 -70 -62 -293 -336 -15 -18 -26 -34 -26 -38 0 -3
-8 -15 -17 -26 -10 -11 -16 -23 -15 -27 2 -3 0 -9 -5 -12 -12 -9 -57 -92 -115
-211 -162 -338 -248 -722 -248 -1115 0 -340 48 -645 142 -905 17 -47 37 -103
45 -125 20 -55 122 -253 150 -291 13 -17 23 -34 23 -39 0 -14 137 -198 210
-283 41 -47 76 -79 82 -76 6 4 8 3 5 -3 -10 -16 185 -193 264 -240 16 -10 29
-21 29 -26 0 -4 5 -5 10 -2 6 3 10 1 10 -4 0 -6 6 -11 13 -11 8 0 22 -9 32
-20 10 -11 22 -20 28 -20 5 0 22 -9 38 -21 16 -11 29 -17 29 -12 0 4 4 3 8 -3
7 -12 186 -99 252 -124 19 -7 40 -17 45 -21 10 -7 143 -44 281 -78 222 -55
579 -71 804 -37 385 60 690 185 1000 411 123 90 290 254 365 359 11 16 25 33
30 40 15 15 119 184 139 223 9 18 16 39 16 47 0 8 3 16 8 18 16 7 86 213 113
332 12 57 12 59 -12 76 -18 15 -47 20 -124 23 -87 4 -245 17 -355 31 -234 28
-279 30 -299 12 -11 -10 -25 -35 -32 -55 -6 -20 -17 -47 -24 -61 -8 -14 -23
-51 -35 -83 -13 -32 -32 -70 -44 -84 -11 -15 -30 -41 -41 -59 -52 -82 -78
-115 -157 -189 -97 -93 -146 -132 -205 -165 -24 -13 -43 -28 -43 -32 0 -5 -4
-7 -8 -4 -5 3 -23 -4 -40 -14 -54 -33 -237 -90 -324 -101 -93 -12 -425 -4
-498 12 -67 15 -179 50 -228 71 -23 11 -47 16 -54 12 -6 -4 -8 -3 -5 3 6 10
-19 28 -35 25 -3 -1 -12 5 -18 13 -7 8 -19 15 -26 15 -8 0 -14 4 -14 9 0 5
-13 14 -30 21 -16 7 -30 16 -30 21 0 4 -8 10 -17 13 -10 3 -30 17 -45 31 -16
14 -28 24 -28 21 0 -2 -17 13 -38 35 -22 21 -42 36 -45 32 -4 -3 -7 -1 -7 5 0
18 -51 72 -62 65 -7 -4 -8 -1 -3 6 4 8 -4 25 -23 44 -34 37 -102 133 -102 145
0 5 -9 19 -20 32 -11 13 -20 29 -20 37 0 7 -3 13 -8 13 -4 0 -18 27 -31 60
-13 33 -27 57 -31 55 -4 -3 -7 1 -6 8 0 6 -13 53 -31 102 -35 101 -69 222 -78
275 -3 19 -10 69 -17 110 -17 104 -17 572 0 670 49 282 130 502 254 685 64 95
185 243 200 244 4 1 18 11 31 24 43 40 101 87 110 87 4 0 5 5 2 10 -3 6 -1 10
6 10 7 0 40 18 73 39 284 184 715 232 1066 119 19 -6 73 -29 120 -52 47 -22
91 -40 97 -39 7 0 10 -3 7 -8 -3 -5 0 -9 6 -9 6 0 21 -9 33 -21 12 -12 38 -32
58 -44 76 -49 190 -180 254 -292 10 -18 23 -29 28 -26 6 3 7 1 3 -5 -7 -12 66
-176 92 -205 14 -16 28 -17 106 -13 50 3 176 8 280 11 104 3 196 10 205 14 9
5 58 11 109 13 50 2 97 9 103 15 8 8 7 27 -2 69 -8 33 -13 65 -12 72 0 6 -2
12 -6 12 -4 0 -13 24 -21 53 -7 28 -17 59 -22 67 -4 8 -20 44 -36 80 -39 94
-139 272 -173 309 -16 18 -29 36 -29 41 0 5 -11 17 -25 26 -14 9 -25 22 -25
29 0 17 -35 47 -45 38 -4 -5 -5 -3 -2 3 4 6 -11 27 -33 46 -29 27 -42 33 -51
24 -9 -8 -10 -8 -5 1 13 24 -56 95 -96 98 -3 0 -10 4 -15 9 -5 5 -2 6 7 2 8
-5 2 3 -13 15 -16 13 -43 36 -60 50 -18 15 -41 29 -53 33 -11 3 -29 15 -40 25
-11 10 -37 26 -57 36 -20 9 -37 22 -37 27 0 5 -5 6 -11 3 -6 -4 -19 2 -30 14
-11 12 -28 21 -39 21 -10 0 -25 7 -34 15 -8 9 -18 15 -21 15 -14 -1 -64 14
-95 30 -48 25 -77 34 -220 74 -235 65 -337 79 -611 83 -135 1 -248 0 -251 -2z"/>
</g>
</svg>
